<mxfile host="app.diagrams.net" agent="Mozilla/5.0 (Windows NT 10.0; Win64; x64) AppleWebKit/537.36 (KHTML, like Gecko) Chrome/126.0.0.0 Safari/537.36" version="24.7.4">
  <diagram name="Page-1" id="y5-NePWyKyB3006rCJuu">
    <mxGraphModel dx="1195" dy="622" grid="1" gridSize="10" guides="1" tooltips="1" connect="1" arrows="1" fold="1" page="1" pageScale="1" pageWidth="827" pageHeight="1169" math="0" shadow="0">
      <root>
        <mxCell id="0" />
        <mxCell id="1" parent="0" />
        <mxCell id="XV_oDtT-e7JMHB48_pIF-1" value="template_content" style="swimlane;fontStyle=0;childLayout=stackLayout;horizontal=1;startSize=26;fillColor=none;horizontalStack=0;resizeParent=1;resizeParentMax=0;resizeLast=0;collapsible=1;marginBottom=0;whiteSpace=wrap;html=1;" parent="1" vertex="1">
          <mxGeometry x="309" y="547" width="191" height="156" as="geometry">
            <mxRectangle x="120" y="110" width="90" height="30" as="alternateBounds" />
          </mxGeometry>
        </mxCell>
        <mxCell id="vAM45_hN77VZuIHrB6hg-1" value="- layout_id: int" style="text;strokeColor=none;fillColor=none;align=left;verticalAlign=top;spacingLeft=4;spacingRight=4;overflow=hidden;rotatable=0;points=[[0,0.5],[1,0.5]];portConstraint=eastwest;whiteSpace=wrap;html=1;" vertex="1" parent="XV_oDtT-e7JMHB48_pIF-1">
          <mxGeometry y="26" width="191" height="26" as="geometry" />
        </mxCell>
        <mxCell id="vAM45_hN77VZuIHrB6hg-2" value="- default: tinyint" style="text;strokeColor=none;fillColor=none;align=left;verticalAlign=top;spacingLeft=4;spacingRight=4;overflow=hidden;rotatable=0;points=[[0,0.5],[1,0.5]];portConstraint=eastwest;whiteSpace=wrap;html=1;" vertex="1" parent="XV_oDtT-e7JMHB48_pIF-1">
          <mxGeometry y="52" width="191" height="26" as="geometry" />
        </mxCell>
        <mxCell id="vAM45_hN77VZuIHrB6hg-3" value="- name: String" style="text;strokeColor=none;fillColor=none;align=left;verticalAlign=top;spacingLeft=4;spacingRight=4;overflow=hidden;rotatable=0;points=[[0,0.5],[1,0.5]];portConstraint=eastwest;whiteSpace=wrap;html=1;" vertex="1" parent="XV_oDtT-e7JMHB48_pIF-1">
          <mxGeometry y="78" width="191" height="26" as="geometry" />
        </mxCell>
        <mxCell id="vAM45_hN77VZuIHrB6hg-4" value="- title: String" style="text;strokeColor=none;fillColor=none;align=left;verticalAlign=top;spacingLeft=4;spacingRight=4;overflow=hidden;rotatable=0;points=[[0,0.5],[1,0.5]];portConstraint=eastwest;whiteSpace=wrap;html=1;" vertex="1" parent="XV_oDtT-e7JMHB48_pIF-1">
          <mxGeometry y="104" width="191" height="26" as="geometry" />
        </mxCell>
        <mxCell id="vAM45_hN77VZuIHrB6hg-5" value="- type: String" style="text;strokeColor=none;fillColor=none;align=left;verticalAlign=top;spacingLeft=4;spacingRight=4;overflow=hidden;rotatable=0;points=[[0,0.5],[1,0.5]];portConstraint=eastwest;whiteSpace=wrap;html=1;" vertex="1" parent="XV_oDtT-e7JMHB48_pIF-1">
          <mxGeometry y="130" width="191" height="26" as="geometry" />
        </mxCell>
        <mxCell id="XV_oDtT-e7JMHB48_pIF-5" value="&lt;span style=&quot;font-weight: 400;&quot;&gt;employee&lt;/span&gt;" style="swimlane;fontStyle=1;align=center;verticalAlign=top;childLayout=stackLayout;horizontal=1;startSize=26;horizontalStack=0;resizeParent=1;resizeParentMax=0;resizeLast=0;collapsible=1;marginBottom=0;whiteSpace=wrap;html=1;" parent="1" vertex="1">
          <mxGeometry x="41" y="410" width="190" height="112" as="geometry" />
        </mxCell>
        <mxCell id="XV_oDtT-e7JMHB48_pIF-3" value="- name: String" style="text;strokeColor=none;fillColor=none;align=left;verticalAlign=top;spacingLeft=4;spacingRight=4;overflow=hidden;rotatable=0;points=[[0,0.5],[1,0.5]];portConstraint=eastwest;whiteSpace=wrap;html=1;" parent="XV_oDtT-e7JMHB48_pIF-5" vertex="1">
          <mxGeometry y="26" width="190" height="26" as="geometry" />
        </mxCell>
        <mxCell id="XV_oDtT-e7JMHB48_pIF-28" value="- firstname: String" style="text;strokeColor=none;fillColor=none;align=left;verticalAlign=top;spacingLeft=4;spacingRight=4;overflow=hidden;rotatable=0;points=[[0,0.5],[1,0.5]];portConstraint=eastwest;whiteSpace=wrap;html=1;" parent="XV_oDtT-e7JMHB48_pIF-5" vertex="1">
          <mxGeometry y="52" width="190" height="26" as="geometry" />
        </mxCell>
        <mxCell id="XV_oDtT-e7JMHB48_pIF-4" value="- email: String" style="text;strokeColor=none;fillColor=none;align=left;verticalAlign=top;spacingLeft=4;spacingRight=4;overflow=hidden;rotatable=0;points=[[0,0.5],[1,0.5]];portConstraint=eastwest;whiteSpace=wrap;html=1;" parent="XV_oDtT-e7JMHB48_pIF-5" vertex="1">
          <mxGeometry y="78" width="190" height="26" as="geometry" />
        </mxCell>
        <mxCell id="XV_oDtT-e7JMHB48_pIF-7" value="" style="line;strokeWidth=1;fillColor=none;align=left;verticalAlign=middle;spacingTop=-1;spacingLeft=3;spacingRight=3;rotatable=0;labelPosition=right;points=[];portConstraint=eastwest;strokeColor=inherit;" parent="XV_oDtT-e7JMHB48_pIF-5" vertex="1">
          <mxGeometry y="104" width="190" height="8" as="geometry" />
        </mxCell>
        <mxCell id="vAM45_hN77VZuIHrB6hg-6" value="template_layout" style="swimlane;fontStyle=0;childLayout=stackLayout;horizontal=1;startSize=26;fillColor=none;horizontalStack=0;resizeParent=1;resizeParentMax=0;resizeLast=0;collapsible=1;marginBottom=0;whiteSpace=wrap;html=1;" vertex="1" parent="1">
          <mxGeometry x="330" y="216" width="191" height="182" as="geometry">
            <mxRectangle x="120" y="110" width="90" height="30" as="alternateBounds" />
          </mxGeometry>
        </mxCell>
        <mxCell id="vAM45_hN77VZuIHrB6hg-10" value="- name: String" style="text;strokeColor=none;fillColor=none;align=left;verticalAlign=top;spacingLeft=4;spacingRight=4;overflow=hidden;rotatable=0;points=[[0,0.5],[1,0.5]];portConstraint=eastwest;whiteSpace=wrap;html=1;" vertex="1" parent="vAM45_hN77VZuIHrB6hg-6">
          <mxGeometry y="26" width="191" height="26" as="geometry" />
        </mxCell>
        <mxCell id="vAM45_hN77VZuIHrB6hg-12" value="- type: String" style="text;strokeColor=none;fillColor=none;align=left;verticalAlign=top;spacingLeft=4;spacingRight=4;overflow=hidden;rotatable=0;points=[[0,0.5],[1,0.5]];portConstraint=eastwest;whiteSpace=wrap;html=1;" vertex="1" parent="vAM45_hN77VZuIHrB6hg-6">
          <mxGeometry y="52" width="191" height="26" as="geometry" />
        </mxCell>
        <mxCell id="vAM45_hN77VZuIHrB6hg-8" value="- output: String" style="text;strokeColor=none;fillColor=none;align=left;verticalAlign=top;spacingLeft=4;spacingRight=4;overflow=hidden;rotatable=0;points=[[0,0.5],[1,0.5]];portConstraint=eastwest;whiteSpace=wrap;html=1;" vertex="1" parent="vAM45_hN77VZuIHrB6hg-6">
          <mxGeometry y="78" width="191" height="26" as="geometry" />
        </mxCell>
        <mxCell id="vAM45_hN77VZuIHrB6hg-9" value="- content: String" style="text;strokeColor=none;fillColor=none;align=left;verticalAlign=top;spacingLeft=4;spacingRight=4;overflow=hidden;rotatable=0;points=[[0,0.5],[1,0.5]];portConstraint=eastwest;whiteSpace=wrap;html=1;" vertex="1" parent="vAM45_hN77VZuIHrB6hg-6">
          <mxGeometry y="104" width="191" height="26" as="geometry" />
        </mxCell>
        <mxCell id="vAM45_hN77VZuIHrB6hg-11" value="- engine: String" style="text;strokeColor=none;fillColor=none;align=left;verticalAlign=top;spacingLeft=4;spacingRight=4;overflow=hidden;rotatable=0;points=[[0,0.5],[1,0.5]];portConstraint=eastwest;whiteSpace=wrap;html=1;" vertex="1" parent="vAM45_hN77VZuIHrB6hg-6">
          <mxGeometry y="130" width="191" height="26" as="geometry" />
        </mxCell>
        <mxCell id="vAM45_hN77VZuIHrB6hg-14" value="- default: tinyint" style="text;strokeColor=none;fillColor=none;align=left;verticalAlign=top;spacingLeft=4;spacingRight=4;overflow=hidden;rotatable=0;points=[[0,0.5],[1,0.5]];portConstraint=eastwest;whiteSpace=wrap;html=1;" vertex="1" parent="vAM45_hN77VZuIHrB6hg-6">
          <mxGeometry y="156" width="191" height="26" as="geometry" />
        </mxCell>
        <mxCell id="vAM45_hN77VZuIHrB6hg-15" value="template_layout_section" style="swimlane;fontStyle=0;childLayout=stackLayout;horizontal=1;startSize=26;fillColor=none;horizontalStack=0;resizeParent=1;resizeParentMax=0;resizeLast=0;collapsible=1;marginBottom=0;whiteSpace=wrap;html=1;" vertex="1" parent="1">
          <mxGeometry x="610" y="120" width="191" height="208" as="geometry">
            <mxRectangle x="120" y="110" width="90" height="30" as="alternateBounds" />
          </mxGeometry>
        </mxCell>
        <mxCell id="vAM45_hN77VZuIHrB6hg-18" value="- type: String" style="text;strokeColor=none;fillColor=none;align=left;verticalAlign=top;spacingLeft=4;spacingRight=4;overflow=hidden;rotatable=0;points=[[0,0.5],[1,0.5]];portConstraint=eastwest;whiteSpace=wrap;html=1;" vertex="1" parent="vAM45_hN77VZuIHrB6hg-15">
          <mxGeometry y="26" width="191" height="26" as="geometry" />
        </mxCell>
        <mxCell id="vAM45_hN77VZuIHrB6hg-17" value="- name: String" style="text;strokeColor=none;fillColor=none;align=left;verticalAlign=top;spacingLeft=4;spacingRight=4;overflow=hidden;rotatable=0;points=[[0,0.5],[1,0.5]];portConstraint=eastwest;whiteSpace=wrap;html=1;" vertex="1" parent="vAM45_hN77VZuIHrB6hg-15">
          <mxGeometry y="52" width="191" height="26" as="geometry" />
        </mxCell>
        <mxCell id="vAM45_hN77VZuIHrB6hg-19" value="- key: String" style="text;strokeColor=none;fillColor=none;align=left;verticalAlign=top;spacingLeft=4;spacingRight=4;overflow=hidden;rotatable=0;points=[[0,0.5],[1,0.5]];portConstraint=eastwest;whiteSpace=wrap;html=1;" vertex="1" parent="vAM45_hN77VZuIHrB6hg-15">
          <mxGeometry y="78" width="191" height="26" as="geometry" />
        </mxCell>
        <mxCell id="vAM45_hN77VZuIHrB6hg-20" value="- field_extra_configuration: String" style="text;strokeColor=none;fillColor=none;align=left;verticalAlign=top;spacingLeft=4;spacingRight=4;overflow=hidden;rotatable=0;points=[[0,0.5],[1,0.5]];portConstraint=eastwest;whiteSpace=wrap;html=1;" vertex="1" parent="vAM45_hN77VZuIHrB6hg-15">
          <mxGeometry y="104" width="191" height="26" as="geometry" />
        </mxCell>
        <mxCell id="vAM45_hN77VZuIHrB6hg-21" value="- preview_data: String" style="text;strokeColor=none;fillColor=none;align=left;verticalAlign=top;spacingLeft=4;spacingRight=4;overflow=hidden;rotatable=0;points=[[0,0.5],[1,0.5]];portConstraint=eastwest;whiteSpace=wrap;html=1;" vertex="1" parent="vAM45_hN77VZuIHrB6hg-15">
          <mxGeometry y="130" width="191" height="26" as="geometry" />
        </mxCell>
        <mxCell id="vAM45_hN77VZuIHrB6hg-22" value="- editable: tinyint" style="text;strokeColor=none;fillColor=none;align=left;verticalAlign=top;spacingLeft=4;spacingRight=4;overflow=hidden;rotatable=0;points=[[0,0.5],[1,0.5]];portConstraint=eastwest;whiteSpace=wrap;html=1;" vertex="1" parent="vAM45_hN77VZuIHrB6hg-15">
          <mxGeometry y="156" width="191" height="26" as="geometry" />
        </mxCell>
        <mxCell id="vAM45_hN77VZuIHrB6hg-31" value="- templating: tinyint" style="text;strokeColor=none;fillColor=none;align=left;verticalAlign=top;spacingLeft=4;spacingRight=4;overflow=hidden;rotatable=0;points=[[0,0.5],[1,0.5]];portConstraint=eastwest;whiteSpace=wrap;html=1;" vertex="1" parent="vAM45_hN77VZuIHrB6hg-15">
          <mxGeometry y="182" width="191" height="26" as="geometry" />
        </mxCell>
        <mxCell id="vAM45_hN77VZuIHrB6hg-23" value="template_content_section" style="swimlane;fontStyle=0;childLayout=stackLayout;horizontal=1;startSize=26;fillColor=none;horizontalStack=0;resizeParent=1;resizeParentMax=0;resizeLast=0;collapsible=1;marginBottom=0;whiteSpace=wrap;html=1;" vertex="1" parent="1">
          <mxGeometry x="610" y="530" width="191" height="52" as="geometry">
            <mxRectangle x="120" y="110" width="90" height="30" as="alternateBounds" />
          </mxGeometry>
        </mxCell>
        <mxCell id="vAM45_hN77VZuIHrB6hg-27" value="- value: String" style="text;strokeColor=none;fillColor=none;align=left;verticalAlign=top;spacingLeft=4;spacingRight=4;overflow=hidden;rotatable=0;points=[[0,0.5],[1,0.5]];portConstraint=eastwest;whiteSpace=wrap;html=1;" vertex="1" parent="vAM45_hN77VZuIHrB6hg-23">
          <mxGeometry y="26" width="191" height="26" as="geometry" />
        </mxCell>
        <mxCell id="vAM45_hN77VZuIHrB6hg-43" value="clic_case_document_section" style="swimlane;fontStyle=0;childLayout=stackLayout;horizontal=1;startSize=26;fillColor=none;horizontalStack=0;resizeParent=1;resizeParentMax=0;resizeLast=0;collapsible=1;marginBottom=0;whiteSpace=wrap;html=1;" vertex="1" parent="1">
          <mxGeometry x="480" y="770" width="191" height="52" as="geometry">
            <mxRectangle x="120" y="110" width="90" height="30" as="alternateBounds" />
          </mxGeometry>
        </mxCell>
        <mxCell id="vAM45_hN77VZuIHrB6hg-48" value="- value: String" style="text;strokeColor=none;fillColor=none;align=left;verticalAlign=top;spacingLeft=4;spacingRight=4;overflow=hidden;rotatable=0;points=[[0,0.5],[1,0.5]];portConstraint=eastwest;whiteSpace=wrap;html=1;" vertex="1" parent="vAM45_hN77VZuIHrB6hg-43">
          <mxGeometry y="26" width="191" height="26" as="geometry" />
        </mxCell>
        <mxCell id="vAM45_hN77VZuIHrB6hg-53" value="" style="endArrow=none;html=1;rounded=0;exitX=0.384;exitY=-0.029;exitDx=0;exitDy=0;exitPerimeter=0;" edge="1" parent="1" source="XV_oDtT-e7JMHB48_pIF-1" target="vAM45_hN77VZuIHrB6hg-14">
          <mxGeometry width="50" height="50" relative="1" as="geometry">
            <mxPoint x="530" y="380" as="sourcePoint" />
            <mxPoint x="580" y="330" as="targetPoint" />
          </mxGeometry>
        </mxCell>
        <mxCell id="vAM45_hN77VZuIHrB6hg-56" value="&lt;span style=&quot;font-weight: 400;&quot;&gt;clic_case&lt;/span&gt;" style="swimlane;fontStyle=1;align=center;verticalAlign=top;childLayout=stackLayout;horizontal=1;startSize=26;horizontalStack=0;resizeParent=1;resizeParentMax=0;resizeLast=0;collapsible=1;marginBottom=0;whiteSpace=wrap;html=1;" vertex="1" parent="1">
          <mxGeometry x="60" y="720" width="209" height="216" as="geometry" />
        </mxCell>
        <mxCell id="vAM45_hN77VZuIHrB6hg-57" value="- created_by: date" style="text;strokeColor=none;fillColor=none;align=left;verticalAlign=top;spacingLeft=4;spacingRight=4;overflow=hidden;rotatable=0;points=[[0,0.5],[1,0.5]];portConstraint=eastwest;whiteSpace=wrap;html=1;" vertex="1" parent="vAM45_hN77VZuIHrB6hg-56">
          <mxGeometry y="26" width="209" height="26" as="geometry" />
        </mxCell>
        <mxCell id="vAM45_hN77VZuIHrB6hg-58" value="- created_at: date" style="text;strokeColor=none;fillColor=none;align=left;verticalAlign=top;spacingLeft=4;spacingRight=4;overflow=hidden;rotatable=0;points=[[0,0.5],[1,0.5]];portConstraint=eastwest;whiteSpace=wrap;html=1;" vertex="1" parent="vAM45_hN77VZuIHrB6hg-56">
          <mxGeometry y="52" width="209" height="26" as="geometry" />
        </mxCell>
        <mxCell id="vAM45_hN77VZuIHrB6hg-59" value="- udapted_by: String" style="text;strokeColor=none;fillColor=none;align=left;verticalAlign=top;spacingLeft=4;spacingRight=4;overflow=hidden;rotatable=0;points=[[0,0.5],[1,0.5]];portConstraint=eastwest;whiteSpace=wrap;html=1;" vertex="1" parent="vAM45_hN77VZuIHrB6hg-56">
          <mxGeometry y="78" width="209" height="26" as="geometry" />
        </mxCell>
        <mxCell id="vAM45_hN77VZuIHrB6hg-102" value="- udapted_at: date" style="text;strokeColor=none;fillColor=none;align=left;verticalAlign=top;spacingLeft=4;spacingRight=4;overflow=hidden;rotatable=0;points=[[0,0.5],[1,0.5]];portConstraint=eastwest;whiteSpace=wrap;html=1;" vertex="1" parent="vAM45_hN77VZuIHrB6hg-56">
          <mxGeometry y="104" width="209" height="26" as="geometry" />
        </mxCell>
        <mxCell id="vAM45_hN77VZuIHrB6hg-62" value="- archived_at: date" style="text;strokeColor=none;fillColor=none;align=left;verticalAlign=top;spacingLeft=4;spacingRight=4;overflow=hidden;rotatable=0;points=[[0,0.5],[1,0.5]];portConstraint=eastwest;whiteSpace=wrap;html=1;" vertex="1" parent="vAM45_hN77VZuIHrB6hg-56">
          <mxGeometry y="130" width="209" height="26" as="geometry" />
        </mxCell>
        <mxCell id="vAM45_hN77VZuIHrB6hg-103" value="- complex_situation: tinyint" style="text;strokeColor=none;fillColor=none;align=left;verticalAlign=top;spacingLeft=4;spacingRight=4;overflow=hidden;rotatable=0;points=[[0,0.5],[1,0.5]];portConstraint=eastwest;whiteSpace=wrap;html=1;" vertex="1" parent="vAM45_hN77VZuIHrB6hg-56">
          <mxGeometry y="156" width="209" height="26" as="geometry" />
        </mxCell>
        <mxCell id="vAM45_hN77VZuIHrB6hg-101" value="- complex_situation_comment: String" style="text;strokeColor=none;fillColor=none;align=left;verticalAlign=top;spacingLeft=4;spacingRight=4;overflow=hidden;rotatable=0;points=[[0,0.5],[1,0.5]];portConstraint=eastwest;whiteSpace=wrap;html=1;" vertex="1" parent="vAM45_hN77VZuIHrB6hg-56">
          <mxGeometry y="182" width="209" height="26" as="geometry" />
        </mxCell>
        <mxCell id="vAM45_hN77VZuIHrB6hg-60" value="" style="line;strokeWidth=1;fillColor=none;align=left;verticalAlign=middle;spacingTop=-1;spacingLeft=3;spacingRight=3;rotatable=0;labelPosition=right;points=[];portConstraint=eastwest;strokeColor=inherit;" vertex="1" parent="vAM45_hN77VZuIHrB6hg-56">
          <mxGeometry y="208" width="209" height="8" as="geometry" />
        </mxCell>
        <mxCell id="vAM45_hN77VZuIHrB6hg-70" value="&lt;span style=&quot;font-weight: 400;&quot;&gt;person&lt;/span&gt;" style="swimlane;fontStyle=1;align=center;verticalAlign=top;childLayout=stackLayout;horizontal=1;startSize=26;horizontalStack=0;resizeParent=1;resizeParentMax=0;resizeLast=0;collapsible=1;marginBottom=0;whiteSpace=wrap;html=1;" vertex="1" parent="1">
          <mxGeometry x="69.5" y="1030" width="190" height="294" as="geometry" />
        </mxCell>
        <mxCell id="vAM45_hN77VZuIHrB6hg-79" value="- civ: String" style="text;strokeColor=none;fillColor=none;align=left;verticalAlign=top;spacingLeft=4;spacingRight=4;overflow=hidden;rotatable=0;points=[[0,0.5],[1,0.5]];portConstraint=eastwest;whiteSpace=wrap;html=1;" vertex="1" parent="vAM45_hN77VZuIHrB6hg-70">
          <mxGeometry y="26" width="190" height="26" as="geometry" />
        </mxCell>
        <mxCell id="vAM45_hN77VZuIHrB6hg-76" value="- surname: String" style="text;strokeColor=none;fillColor=none;align=left;verticalAlign=top;spacingLeft=4;spacingRight=4;overflow=hidden;rotatable=0;points=[[0,0.5],[1,0.5]];portConstraint=eastwest;whiteSpace=wrap;html=1;" vertex="1" parent="vAM45_hN77VZuIHrB6hg-70">
          <mxGeometry y="52" width="190" height="26" as="geometry" />
        </mxCell>
        <mxCell id="vAM45_hN77VZuIHrB6hg-77" value="- firstname: String" style="text;strokeColor=none;fillColor=none;align=left;verticalAlign=top;spacingLeft=4;spacingRight=4;overflow=hidden;rotatable=0;points=[[0,0.5],[1,0.5]];portConstraint=eastwest;whiteSpace=wrap;html=1;" vertex="1" parent="vAM45_hN77VZuIHrB6hg-70">
          <mxGeometry y="78" width="190" height="26" as="geometry" />
        </mxCell>
        <mxCell id="vAM45_hN77VZuIHrB6hg-80" value="- gender: String" style="text;strokeColor=none;fillColor=none;align=left;verticalAlign=top;spacingLeft=4;spacingRight=4;overflow=hidden;rotatable=0;points=[[0,0.5],[1,0.5]];portConstraint=eastwest;whiteSpace=wrap;html=1;" vertex="1" parent="vAM45_hN77VZuIHrB6hg-70">
          <mxGeometry y="104" width="190" height="26" as="geometry" />
        </mxCell>
        <mxCell id="vAM45_hN77VZuIHrB6hg-78" value="- email: String" style="text;strokeColor=none;fillColor=none;align=left;verticalAlign=top;spacingLeft=4;spacingRight=4;overflow=hidden;rotatable=0;points=[[0,0.5],[1,0.5]];portConstraint=eastwest;whiteSpace=wrap;html=1;" vertex="1" parent="vAM45_hN77VZuIHrB6hg-70">
          <mxGeometry y="130" width="190" height="26" as="geometry" />
        </mxCell>
        <mxCell id="vAM45_hN77VZuIHrB6hg-81" value="- address: String" style="text;align=left;verticalAlign=top;spacingLeft=4;spacingRight=4;overflow=hidden;rotatable=0;points=[[0,0.5],[1,0.5]];portConstraint=eastwest;" vertex="1" parent="vAM45_hN77VZuIHrB6hg-70">
          <mxGeometry y="156" width="190" height="26" as="geometry" />
        </mxCell>
        <mxCell id="vAM45_hN77VZuIHrB6hg-83" value="- city: String" style="text;align=left;verticalAlign=top;spacingLeft=4;spacingRight=4;overflow=hidden;rotatable=0;points=[[0,0.5],[1,0.5]];portConstraint=eastwest;" vertex="1" parent="vAM45_hN77VZuIHrB6hg-70">
          <mxGeometry y="182" width="190" height="26" as="geometry" />
        </mxCell>
        <mxCell id="vAM45_hN77VZuIHrB6hg-82" value="- zip_code: String" style="text;align=left;verticalAlign=top;spacingLeft=4;spacingRight=4;overflow=hidden;rotatable=0;points=[[0,0.5],[1,0.5]];portConstraint=eastwest;" vertex="1" parent="vAM45_hN77VZuIHrB6hg-70">
          <mxGeometry y="208" width="190" height="26" as="geometry" />
        </mxCell>
        <mxCell id="vAM45_hN77VZuIHrB6hg-74" value="- birth_location: String" style="text;strokeColor=none;fillColor=none;align=left;verticalAlign=top;spacingLeft=4;spacingRight=4;overflow=hidden;rotatable=0;points=[[0,0.5],[1,0.5]];portConstraint=eastwest;whiteSpace=wrap;html=1;" vertex="1" parent="vAM45_hN77VZuIHrB6hg-70">
          <mxGeometry y="234" width="190" height="26" as="geometry" />
        </mxCell>
        <mxCell id="vAM45_hN77VZuIHrB6hg-84" value="- no_social_security: String" style="text;strokeColor=none;fillColor=none;align=left;verticalAlign=top;spacingLeft=4;spacingRight=4;overflow=hidden;rotatable=0;points=[[0,0.5],[1,0.5]];portConstraint=eastwest;whiteSpace=wrap;html=1;" vertex="1" parent="vAM45_hN77VZuIHrB6hg-70">
          <mxGeometry y="260" width="190" height="26" as="geometry" />
        </mxCell>
        <mxCell id="vAM45_hN77VZuIHrB6hg-75" value="" style="line;strokeWidth=1;fillColor=none;align=left;verticalAlign=middle;spacingTop=-1;spacingLeft=3;spacingRight=3;rotatable=0;labelPosition=right;points=[];portConstraint=eastwest;strokeColor=inherit;" vertex="1" parent="vAM45_hN77VZuIHrB6hg-70">
          <mxGeometry y="286" width="190" height="8" as="geometry" />
        </mxCell>
        <mxCell id="vAM45_hN77VZuIHrB6hg-99" value="" style="endArrow=none;html=1;rounded=0;entryX=0.5;entryY=1;entryDx=0;entryDy=0;" edge="1" parent="1" source="vAM45_hN77VZuIHrB6hg-70" target="vAM45_hN77VZuIHrB6hg-56">
          <mxGeometry width="50" height="50" relative="1" as="geometry">
            <mxPoint x="267" y="895" as="sourcePoint" />
            <mxPoint x="150" y="800" as="targetPoint" />
          </mxGeometry>
        </mxCell>
        <mxCell id="vAM45_hN77VZuIHrB6hg-113" value="" style="endArrow=diamondThin;endFill=1;endSize=24;html=1;rounded=0;exitX=0.017;exitY=0.064;exitDx=0;exitDy=0;exitPerimeter=0;entryX=0.986;entryY=0.096;entryDx=0;entryDy=0;entryPerimeter=0;" edge="1" parent="1" source="vAM45_hN77VZuIHrB6hg-20" target="vAM45_hN77VZuIHrB6hg-8">
          <mxGeometry width="160" relative="1" as="geometry">
            <mxPoint x="480" y="310" as="sourcePoint" />
            <mxPoint x="640" y="310" as="targetPoint" />
          </mxGeometry>
        </mxCell>
        <mxCell id="vAM45_hN77VZuIHrB6hg-114" value="" style="endArrow=diamondThin;endFill=1;endSize=24;html=1;rounded=0;exitX=0.004;exitY=0.375;exitDx=0;exitDy=0;exitPerimeter=0;entryX=1.012;entryY=0.105;entryDx=0;entryDy=0;entryPerimeter=0;" edge="1" parent="1" source="vAM45_hN77VZuIHrB6hg-23" target="XV_oDtT-e7JMHB48_pIF-1">
          <mxGeometry width="160" relative="1" as="geometry">
            <mxPoint x="626" y="540" as="sourcePoint" />
            <mxPoint x="521" y="540" as="targetPoint" />
          </mxGeometry>
        </mxCell>
        <mxCell id="vAM45_hN77VZuIHrB6hg-115" value="" style="endArrow=none;html=1;rounded=0;exitX=1;exitY=0.5;exitDx=0;exitDy=0;entryX=0;entryY=0.5;entryDx=0;entryDy=0;" edge="1" parent="1" source="XV_oDtT-e7JMHB48_pIF-28" target="vAM45_hN77VZuIHrB6hg-2">
          <mxGeometry width="50" height="50" relative="1" as="geometry">
            <mxPoint x="250" y="480" as="sourcePoint" />
            <mxPoint x="271" y="297" as="targetPoint" />
          </mxGeometry>
        </mxCell>
        <mxCell id="vAM45_hN77VZuIHrB6hg-116" value="" style="endArrow=none;html=1;rounded=0;exitX=0.85;exitY=0.004;exitDx=0;exitDy=0;exitPerimeter=0;entryX=0;entryY=0.5;entryDx=0;entryDy=0;" edge="1" parent="1" source="XV_oDtT-e7JMHB48_pIF-5" target="vAM45_hN77VZuIHrB6hg-8">
          <mxGeometry width="50" height="50" relative="1" as="geometry">
            <mxPoint x="413" y="485" as="sourcePoint" />
            <mxPoint x="434" y="302" as="targetPoint" />
          </mxGeometry>
        </mxCell>
        <mxCell id="vAM45_hN77VZuIHrB6hg-120" value="1..*" style="text;html=1;align=center;verticalAlign=middle;whiteSpace=wrap;rounded=0;" vertex="1" parent="1">
          <mxGeometry x="560" y="552" width="60" height="30" as="geometry" />
        </mxCell>
        <mxCell id="vAM45_hN77VZuIHrB6hg-121" value="1" style="text;html=1;align=center;verticalAlign=middle;whiteSpace=wrap;rounded=0;" vertex="1" parent="1">
          <mxGeometry x="480" y="530" width="60" height="30" as="geometry" />
        </mxCell>
        <mxCell id="vAM45_hN77VZuIHrB6hg-122" value="1..*" style="text;html=1;align=center;verticalAlign=middle;whiteSpace=wrap;rounded=0;" vertex="1" parent="1">
          <mxGeometry x="570" y="209" width="60" height="30" as="geometry" />
        </mxCell>
        <mxCell id="vAM45_hN77VZuIHrB6hg-123" value="1" style="text;html=1;align=center;verticalAlign=middle;whiteSpace=wrap;rounded=0;" vertex="1" parent="1">
          <mxGeometry x="500" y="292" width="60" height="30" as="geometry" />
        </mxCell>
        <mxCell id="vAM45_hN77VZuIHrB6hg-125" value="1..*" style="text;html=1;align=center;verticalAlign=middle;whiteSpace=wrap;rounded=0;" vertex="1" parent="1">
          <mxGeometry x="160" y="380" width="60" height="30" as="geometry" />
        </mxCell>
        <mxCell id="vAM45_hN77VZuIHrB6hg-126" value="1..*" style="text;html=1;align=center;verticalAlign=middle;whiteSpace=wrap;rounded=0;" vertex="1" parent="1">
          <mxGeometry x="290" y="322" width="60" height="30" as="geometry" />
        </mxCell>
        <mxCell id="vAM45_hN77VZuIHrB6hg-127" value="1" style="text;html=1;align=center;verticalAlign=middle;whiteSpace=wrap;rounded=0;" vertex="1" parent="1">
          <mxGeometry x="414" y="292" width="60" height="30" as="geometry" />
        </mxCell>
        <mxCell id="vAM45_hN77VZuIHrB6hg-128" value="1..*" style="text;html=1;align=center;verticalAlign=middle;whiteSpace=wrap;rounded=0;" vertex="1" parent="1">
          <mxGeometry x="330" y="517" width="60" height="30" as="geometry" />
        </mxCell>
        <mxCell id="vAM45_hN77VZuIHrB6hg-129" value="" style="endArrow=none;html=1;rounded=0;entryX=0;entryY=0.25;entryDx=0;entryDy=0;" edge="1" parent="1" source="vAM45_hN77VZuIHrB6hg-5" target="vAM45_hN77VZuIHrB6hg-43">
          <mxGeometry width="50" height="50" relative="1" as="geometry">
            <mxPoint x="480" y="720" as="sourcePoint" />
            <mxPoint x="558" y="857" as="targetPoint" />
          </mxGeometry>
        </mxCell>
      </root>
    </mxGraphModel>
  </diagram>
</mxfile>
